<svg xmlns="http://www.w3.org/2000/svg" width="24" height="24" fill="#E4405F" viewBox="0 0 24 24"><path d="M12 2.2c3.2 0 3.6.01 4.9.07 1.2.06 2 .25 2.5.42.6.23 1.1.5 1.6 1 .5.5.8 1 1 1.6.2.5.4 1.3.4 2.5.1 1.3.1 1.7.1 4.9s0 3.6-.1 4.9c-.1 1.2-.3 2-.4 2.5-.2.6-.5 1.1-1 1.6-.5.5-1 .8-1.6 1-.5.2-1.3.4-2.5.4-1.3.1-1.7.1-4.9.1s-3.6 0-4.9-.1c-1.2-.1-2-.3-2.5-.4-.6-.2-1.1-.5-1.6-1-.5-.5-.8-1-1-1.6-.2-.5-.4-1.3-.4-2.5-.1-1.3-.1-1.7-.1-4.9s0-3.6.1-4.9c.1-1.2.3-2 .4-2.5.2-.6.5-1.1 1-1.6.5-.5 1-.8 1.6-1 .5-.2 1.3-.4 2.5-.4C8.4 2.2 8.8 2.2 12 2.2zM12 5.8a6.2 6.2 0 100 12.4A6.2 6.2 0 0012 5.8zm7.6-2.1a1.44 1.44 0 11-2.88 0 1.44 1.44 0 012.88 0zM12 7.3a4.7 4.7 0 110 9.4 4.7 4.7 0 010-9.4z"/></svg>